<?xml version="1.0" encoding="utf-8"?><svg xmlns="http://www.w3.org/2000/svg" xmlns:xlink="http://www.w3.org/1999/xlink" width="1440" height="772" preserveAspectRatio="xMidYMid" viewBox="0 0 1440 772" style="z-index:1;margin-right:-2px;display:block;background-repeat-y:initial;background-repeat-x:initial;background-color:rgb(255, 255, 255);animation-play-state:paused" ><g transform="" style="animation-play-state:paused" ><path id="path0" d="M 603.9630651383842 274.9092780447798
c 0 21.03739133655511 -5.1474468163911435 6.042654958372213 -11.190101774763356 6.042654958372213
S 581.5828615888576 295.9466693813349 581.5828615888576 274.9092780447798
s 5.1474468163911435 -6.042654958372213 11.190101774763356 -6.042654958372213
S 603.9630651383842 253.87188670822468 603.9630651383842 274.9092780447798
z" fill="none" stroke="none" style="animation-play-state:paused" ></path>


<circle cx="0" cy="0" r="5.439230936605907" fill="#9df871" transform="translate(603.9340209960938 272.3670654296875)" style="animation-play-state:paused" ></circle>
<path id="path1" d="M 670.2155098839513 591.9401643872362
c 0 35.47991371903453 -8.681255484444618 10.191039046956726 -18.872294531401344 10.191039046956726
S 632.4709208211485 627.4200781062707 632.4709208211485 591.9401643872362
s 8.681255484444618 -10.191039046956726 18.872294531401344 -10.191039046956726
S 670.2155098839513 556.4602506682018 670.2155098839513 591.9401643872362
z" fill="none" stroke="none" style="animation-play-state:paused" ></path>


<circle cx="0" cy="0" r="4.536427200793273" fill="#de9dd6" transform="translate(659.4400634765625 606.2315063476562)" style="animation-play-state:paused" ></circle>
<path id="path2" d="M 1077.0418361896154 177.15977494677801
c 0 23.549833177947487 -5.762193224391406 6.764313785155129 -12.526507009546535 6.764313785155129
S 1051.9888221705223 200.7096081247255 1051.9888221705223 177.15977494677801
s 5.762193224391406 -6.764313785155129 12.526507009546535 -6.764313785155129
S 1077.0418361896154 153.60994176883054 1077.0418361896154 177.15977494677801
z" fill="none" stroke="none" style="animation-play-state:paused" ></path>


<circle cx="0" cy="0" r="5.9491144911752265" fill="#e0ff77" transform="translate(1051.9981689453125 178.7517852783203)" style="animation-play-state:paused" ></circle>
<path id="path3" d="M 1398.772784654257 66.19250010939635
c 0 21.255248400011848 -5.200752268088005 6.1052309234076585 -11.305983191495663 6.1052309234076585
S 1376.1608182712657 87.4477485094082 1376.1608182712657 66.19250010939635
s 5.200752268088005 -6.1052309234076585 11.305983191495663 -6.1052309234076585
S 1398.772784654257 44.9372517093845 1398.772784654257 66.19250010939635
z" fill="none" stroke="none" style="animation-play-state:paused" ></path>


<circle cx="0" cy="0" r="6.49635330730444" fill="#ff708e" transform="translate(1397.315185546875 55.28113555908203)" style="animation-play-state:paused" ></circle>
<path id="path4" d="M 542.9507632300213 551.718289235922
c 0 31.30459379181944 -7.659634651189862 8.99174502530984 -16.6513796764997 8.99174502530984
S 509.6480038770219 583.0228830277415 509.6480038770219 551.718289235922
s 7.659634651189862 -8.99174502530984 16.6513796764997 -8.99174502530984
S 542.9507632300213 520.4136954441026 542.9507632300213 551.718289235922
z" fill="none" stroke="none" style="animation-play-state:paused" ></path>


<circle cx="0" cy="0" r="7.000780214547523" fill="#9df871" transform="translate(531.9619750976562 563.1329956054688)" style="animation-play-state:paused" ></circle>
<path id="path5" d="M 268.2266068374035 494.14782586149636
c 0 25.555953219003445 -6.253052383373182 7.340539754394607 -13.59359213776779 7.340539754394607
S 241.0394225618679 519.7037790804998 241.0394225618679 494.14782586149636
s 6.253052383373182 -7.340539754394607 13.59359213776779 -7.340539754394607
S 268.2266068374035 468.5918726424929 268.2266068374035 494.14782586149636
z" fill="none" stroke="none" style="animation-play-state:paused" ></path>


<circle cx="0" cy="0" r="6.939385006511394" fill="#51cacc" transform="translate(268.20477294921875 491.6885986328125)" style="animation-play-state:paused" ></circle>
<path id="path6" d="M 238.89452273953307 479.0684851585068
c 0 33.53774330396916 -8.206043574375432 9.63318158731029 -17.83922516168572 9.63318158731029
S 203.2160724161616 512.606228462476 203.2160724161616 479.0684851585068
s 8.206043574375432 -9.63318158731029 17.83922516168572 -9.63318158731029
S 238.89452273953307 445.53074185453767 238.89452273953307 479.0684851585068
z" fill="none" stroke="none" style="animation-play-state:paused" ></path>


<circle cx="0" cy="0" r="7.629381897172901" fill="#e0ff77" transform="translate(238.26239013671875 491.2922058105469)" style="animation-play-state:paused" ></circle>
<path id="path7" d="M 814.6307917566932 612.255861633188
c 0 24.031064335928818 -5.87994127368471 6.902539756064661 -12.78248102974937 6.902539756064661
S 789.0658296971943 636.2869259691169 789.0658296971943 612.255861633188
s 5.87994127368471 -6.902539756064661 12.78248102974937 -6.902539756064661
S 814.6307917566932 588.2247972972592 814.6307917566932 612.255861633188
z" fill="none" stroke="none" style="animation-play-state:paused" ></path>


<circle cx="0" cy="0" r="7.424113985562056" fill="#e0ff77" transform="translate(789.2835693359375 618.8992309570312)" style="animation-play-state:paused" ></circle>
<path id="path8" d="M 1225.7002544557315 94.01872661256753
c 0 27.09444802458776 -6.629492601760833 7.782447836849675 -14.41194043861051 7.782447836849675
S 1196.8763735785103 121.1131746371553 1196.8763735785103 94.01872661256753
s 6.629492601760833 -7.782447836849675 14.41194043861051 -7.782447836849675
S 1225.7002544557315 66.92427858797977 1225.7002544557315 94.01872661256753
z" fill="none" stroke="none" style="animation-play-state:paused" ></path>


<circle cx="0" cy="0" r="6.823438452500229" fill="#ff708e" transform="translate(1197.7923583984375 105.9053955078125)" style="animation-play-state:paused" ></circle>
<path id="path9" d="M 784.9143139167462 77.74409683916831
c 0 35.42992158270071 -8.669023365979958 10.176679603541693 -18.845702969521653 10.176679603541693
S 747.2229079777029 113.17401842186902 747.2229079777029 77.74409683916831
s 8.669023365979958 -10.176679603541693 18.845702969521653 -10.176679603541693
S 784.9143139167462 42.3141752564676 784.9143139167462 77.74409683916831
z" fill="none" stroke="none" style="animation-play-state:paused" ></path>


<circle cx="0" cy="0" r="7.363721996688917" fill="#9df871" transform="translate(766.7415161132812 67.53105163574219)" style="animation-play-state:paused" ></circle>
<path id="path10" d="M 448.3297426570189 73.87872108918233
c 0 23.88971157222218 -5.845354959160745 6.861938430319136 -12.707293389479881 6.861938430319136
S 422.9151558780591 97.76843266140452 422.9151558780591 73.87872108918233
s 5.845354959160745 -6.861938430319136 12.707293389479881 -6.861938430319136
S 448.3297426570189 49.98900951696015 448.3297426570189 73.87872108918233
z" fill="none" stroke="none" style="animation-play-state:paused" ></path>


<circle cx="0" cy="0" r="4.385379138864496" fill="#9df871" transform="translate(426.8711853027344 86.16742706298828)" style="animation-play-state:paused" ></circle>
<path id="path11" d="M 183.50068782724009 342.6671053521448
c 0 29.19392763665735 -7.143195060033181 8.385489853082431 -15.528684913115612 8.385489853082431
S 152.4433180010089 371.86103298880215 152.4433180010089 342.6671053521448
s 7.143195060033181 -8.385489853082431 15.528684913115612 -8.385489853082431
S 183.50068782724009 313.47317771548745 183.50068782724009 342.6671053521448
z" fill="none" stroke="none" style="animation-play-state:paused" ></path>


<circle cx="0" cy="0" r="7.452576725298815" fill="#51cacc" transform="translate(153.65301513671875 329.1437072753906)" style="animation-play-state:paused" ></circle>
<path id="path12" d="M 649.3639733207817 661.1582117437081
c 0 33.19697059958203 -8.122663019046666 9.535300065837392 -17.657963084884056 9.535300065837392
S 614.0480471510136 694.3551823432902 614.0480471510136 661.1582117437081
s 8.122663019046666 -9.535300065837392 17.657963084884056 -9.535300065837392
S 649.3639733207817 627.961241144126 649.3639733207817 661.1582117437081
z" fill="none" stroke="none" style="animation-play-state:paused" ></path>


<circle cx="0" cy="0" r="7.053899444745206" fill="#ff708e" transform="translate(636.2190551757812 672.2258911132812)" style="animation-play-state:paused" ></circle>
<path id="path13" d="M 854.161149298688 457.55341979252574
c 0 22.806477641613796 -5.580308359118269 6.550796769399708 -12.131105128517977 6.550796769399708
S 829.8989390416519 480.35989743413955 829.8989390416519 457.55341979252574
s 5.580308359118269 -6.550796769399708 12.131105128517977 -6.550796769399708
S 854.161149298688 434.74694215091193 854.161149298688 457.55341979252574
z" fill="none" stroke="none" style="animation-play-state:paused" ></path>


<circle cx="0" cy="0" r="7.265909158433357" fill="#9df871" transform="translate(830.08837890625 451.4640197753906)" style="animation-play-state:paused" ></circle>
<path id="path14" d="M 317.2031804431775 363.69706001699905
c 0 35.71478335831162 -8.738723587671991 10.258501602919296 -18.997225190591287 10.258501602919296
S 279.2087300619949 399.4118433753107 279.2087300619949 363.69706001699905
s 8.738723587671991 -10.258501602919296 18.997225190591287 -10.258501602919296
S 317.2031804431775 327.9822766586874 317.2031804431775 363.69706001699905
z" fill="none" stroke="none" style="animation-play-state:paused" ></path>


<circle cx="0" cy="0" r="4.041615964418337" fill="#9df871" transform="translate(286.2192687988281 381.31854248046875)" style="animation-play-state:paused" ></circle>
<path id="path15" d="M 97.45013108192448 435.90693110108674
c 0 27.066993044677584 -6.622774893910472 7.77456183198186 -14.39733672589233 7.77456183198186
S 68.65545763013982 462.97392414576433 68.65545763013982 435.90693110108674
s 6.622774893910472 -7.77456183198186 14.39733672589233 -7.77456183198186
S 97.45013108192448 408.83993805640915 97.45013108192448 435.90693110108674
z" fill="none" stroke="none" style="animation-play-state:paused" ></path>


<circle cx="0" cy="0" r="4.670783027083199" fill="#ff708e" transform="translate(97.43700408935547 433.9226379394531)" style="animation-play-state:paused" ></circle>
<path id="path16" d="M 1293.809980725585 333.8991087965153
c 0 23.870625723107004 -5.840685017355969 6.856456324722225 -12.697141342078194 6.856456324722225
S 1268.4156980414289 357.7697345196223 1268.4156980414289 333.8991087965153
s 5.840685017355969 -6.856456324722225 12.697141342078194 -6.856456324722225
S 1293.809980725585 310.02848307340827 1293.809980725585 333.8991087965153
z" fill="none" stroke="none" style="animation-play-state:paused" ></path>


<circle cx="0" cy="0" r="4.390429266247869" fill="#e0ff77" transform="translate(1293.3587646484375 325.1907958984375)" style="animation-play-state:paused" ></circle>
<path id="path17" d="M 110.25361106804024 88.6540511838024
c 0 23.72650416487137 -5.805421231830227 6.815059706931137 -12.620480938761364 6.815059706931137
S 85.01264919051752 112.38055534867377 85.01264919051752 88.6540511838024
s 5.805421231830227 -6.815059706931137 12.620480938761364 -6.815059706931137
S 110.25361106804024 64.92754701893102 110.25361106804024 88.6540511838024
z" fill="none" stroke="none" style="animation-play-state:paused" ></path>


<circle cx="0" cy="0" r="4.904276831363257" fill="#51cacc" transform="translate(109.5533447265625 78.648193359375)" style="animation-play-state:paused" ></circle>
<path id="path18" d="M 1137.5760142806505 68.38452334019517
c 0 36.3005414514059 -8.882047376407824 10.426751267957012 -19.30879864436484 10.426751267957012
S 1098.958416991921 104.68506479160106 1098.958416991921 68.38452334019517
s 8.882047376407824 -10.426751267957012 19.30879864436484 -10.426751267957012
S 1137.5760142806505 32.083981888789275 1137.5760142806505 68.38452334019517
z" fill="none" stroke="none" style="animation-play-state:paused" ></path>


<circle cx="0" cy="0" r="4.390960818573751" fill="#de9dd6" transform="translate(1135.589111328125 86.29558563232422)" style="animation-play-state:paused" ></circle>
<path id="path19" d="M 793.2149929007646 730.048096820623
c 0 36.56905776097475 -8.947748175557651 10.50387829304594 -19.451626468603592 10.50387829304594
S 754.3117399635576 766.6171545815977 754.3117399635576 730.048096820623
s 8.947748175557651 -10.50387829304594 19.451626468603592 -10.50387829304594
S 793.2149929007646 693.4790390596482 793.2149929007646 730.048096820623
z" fill="none" stroke="none" style="animation-play-state:paused" ></path>


<circle cx="0" cy="0" r="5.4865055194160455" fill="#9df871" transform="translate(757.9346923828125 749.5108642578125)" style="animation-play-state:paused" ></circle>
<path id="path20" d="M 94.56472484842996 362.1236594000246
c 0 22.539245896758118 -5.514921868355709 6.474038715026269 -11.988960583381978 6.474038715026269
S 70.586803681666 384.66290529678275 70.586803681666 362.1236594000246
s 5.514921868355709 -6.474038715026269 11.988960583381978 -6.474038715026269
S 94.56472484842996 339.5844135032665 94.56472484842996 362.1236594000246
z" fill="none" stroke="none" style="animation-play-state:paused" ></path>


<circle cx="0" cy="0" r="4.487349364107161" fill="#ff708e" transform="translate(83.79853057861328 355.4685363769531)" style="animation-play-state:paused" ></circle>
<path id="path21" d="M 867.3838596155279 136.277492868165
c 0 37.55558834705546 -9.189133318960378 10.787243461388272 -19.97637678034865 10.787243461388272
S 827.4311060548305 173.8330812152205 827.4311060548305 136.277492868165
s 9.189133318960378 -10.787243461388272 19.97637678034865 -10.787243461388272
S 867.3838596155279 98.72190452110955 867.3838596155279 136.277492868165
z" fill="none" stroke="none" style="animation-play-state:paused" ></path>


<circle cx="0" cy="0" r="6.313543453267694" fill="#de9dd6" transform="translate(830.991455078125 156.22286987304688)" style="animation-play-state:paused" ></circle>
<path id="path22" d="M 1110.0580818439232 444.91574142443534
c 0 30.492563815914636 -7.460946465596134 8.758502372656332 -16.219448838252465 8.758502372656332
S 1077.6191841674183 475.40830524035 1077.6191841674183 444.91574142443534
s 7.460946465596134 -8.758502372656332 16.219448838252465 -8.758502372656332
S 1110.0580818439232 414.4231776085207 1110.0580818439232 444.91574142443534
z" fill="none" stroke="none" style="animation-play-state:paused" ></path>


<circle cx="0" cy="0" r="6.609141767516924" fill="#e0ff77" transform="translate(1094.8106689453125 436.0705261230469)" style="animation-play-state:paused" ></circle>
<path id="path23" d="M 536.670270469389 105.47539403360777
c 0 20.051150401966797 -4.906132545162088 5.759372987798973 -10.665505532961062 5.759372987798973
S 515.3392594034668 125.52654443557456 515.3392594034668 105.47539403360777
s 4.906132545162088 -5.759372987798973 10.665505532961062 -5.759372987798973
S 536.670270469389 85.42424363164098 536.670270469389 105.47539403360777
z" fill="none" stroke="none" style="animation-play-state:paused" ></path>


<circle cx="0" cy="0" r="6.0193660616600955" fill="#51cacc" transform="translate(515.3451538085938 104.33026123046875)" style="animation-play-state:paused" ></circle>
<path id="path24" d="M 19.969622813751272 249.74165331958423
c 0 20.76838902880267 -5.081627102792142 5.965388338060341 -11.047015440852483 5.965388338060341
S -2.124408067953693 270.5100423483869 -2.124408067953693 249.74165331958423
s 5.081627102792142 -5.965388338060341 11.047015440852483 -5.965388338060341
S 19.969622813751272 228.97326429078157 19.969622813751272 249.74165331958423
z" fill="none" stroke="none" style="animation-play-state:paused" ></path>


<circle cx="0" cy="0" r="5.362752595292676" fill="#de9dd6" transform="translate(-2.0545976161956787 245.9724578857422)" style="animation-play-state:paused" ></circle>
<path id="path25" d="M 762.8891046822202 569.8454016076466
c 0 30.99483536426903 -7.583842695512634 8.902771859949615 -16.48661455546225 8.902771859949615
S 729.9158755712958 600.8402369719157 729.9158755712958 569.8454016076466
s 7.583842695512634 -8.902771859949615 16.48661455546225 -8.902771859949615
S 762.8891046822202 538.8505662433776 762.8891046822202 569.8454016076466
z" fill="none" stroke="none" style="animation-play-state:paused" ></path>


<circle cx="0" cy="0" r="4.651295465688867" fill="#ff708e" transform="translate(762.723388671875 562.9537963867188)" style="animation-play-state:paused" ></circle>
<path id="path26" d="M 1367.0341760170438 166.15372934394352
c 0 32.2110193652449 -7.881419631921624 9.252101307038428 -17.133520938960054 9.252101307038428
S 1332.7671341391235 198.36474870918843 1332.7671341391235 166.15372934394352
s 7.881419631921624 -9.252101307038428 17.133520938960054 -9.252101307038428
S 1367.0341760170438 133.94270997869862 1367.0341760170438 166.15372934394352
z" fill="none" stroke="none" style="animation-play-state:paused" ></path>


<circle cx="0" cy="0" r="7.623292314899298" fill="#de9dd6" transform="translate(1353.9053955078125 176.66604614257812)" style="animation-play-state:paused" ></circle>
<path id="path27" d="M 1240.6682211299792 721.3673332900997
c 0 31.604027698481747 -7.732900394309363 9.07775263679795 -16.81065303110731 9.07775263679795
S 1207.0469150677648 752.9713609885815 1207.0469150677648 721.3673332900997
s 7.732900394309363 -9.07775263679795 16.81065303110731 -9.07775263679795
S 1240.6682211299792 689.763305591618 1240.6682211299792 721.3673332900997
z" fill="none" stroke="none" style="animation-play-state:paused" ></path>


<circle cx="0" cy="0" r="6.043527450861803" fill="#ff708e" transform="translate(1215.0084228515625 707.2239379882812)" style="animation-play-state:paused" ></circle>
<path id="path28" d="M 717.9402855414958 658.737994695231
c 0 32.421139483562385 -7.932832001297179 9.312454958044516 -17.245286959341694 9.312454958044516
S 683.4497116228124 691.1591341787934 683.4497116228124 658.737994695231
s 7.932832001297179 -9.312454958044516 17.245286959341694 -9.312454958044516
S 717.9402855414958 626.3168552116687 717.9402855414958 658.737994695231
z" fill="none" stroke="none" style="animation-play-state:paused" ></path>


<circle cx="0" cy="0" r="5.140019530620466" fill="#ff708e" transform="translate(690.6987915039062 674.029052734375)" style="animation-play-state:paused" ></circle>
<path id="path29" d="M 1388.9840389878925 134.0967543712197
c 0 22.687303495516428 -5.55114872762636 6.516565897648335 -12.067714625274695 6.516565897648335
S 1364.8486097373432 156.78405786673613 1364.8486097373432 134.0967543712197
s 5.55114872762636 -6.516565897648335 12.067714625274695 -6.516565897648335
S 1388.9840389878925 111.40945087570327 1388.9840389878925 134.0967543712197
z" fill="none" stroke="none" style="animation-play-state:paused" ></path>


<circle cx="0" cy="0" r="7.625530501602115" fill="#51cacc" transform="translate(1368.99072265625 122.6771240234375)" style="animation-play-state:paused" ></circle></g></svg>